<?xml version="1.0" encoding="UTF-8"?>
<svg id="Layer_1" data-name="Layer 1" xmlns="http://www.w3.org/2000/svg" viewBox="0 240 1200 320">
  <defs>
    <style>
      .cls-1 {
        fill: #231f20;
      }
    </style>
  </defs>
  <path class="cls-1" d="M216.46,344.87l-.05-.23-65.6-91.13-64.26,90.87-.13,.19-33.72,143.81-.05,.21,97.57,57.56,.6,.35,98.56-57.76,.19-.11-33.1-143.76Zm-50.81,144.36l-14.78,46.75-14.05-46.75h28.83Zm-34.39,0l15.5,49.47-83.04-49.47h67.54Zm81.42-64.81l-13.62-23.5,14.65-46.53,27.45,119.15-28.48-49.12Zm-59.46-102.74v-56.72l58.14,80.81-15.69,49.29-42.44-73.37Zm19,162.81l24.73-77.76,11.69,20.14,33.34,57.62h-69.76Zm66.49,4.82l-83.77,49.44,15.75-49.47,68.01,.04Zm-44.94-88.14l-26.53,83.32h-32.48l-26.26-83.98,42.35-73.51,42.92,74.16Zm-63.98,83.29H60.45l45.06-77.63,24.28,77.63Zm18.68-162.89l-41.94,72.81-15.2-48.58,57.14-80.76v56.52ZM61.52,472.58l27.24-118.2,14.46,45.85-41.69,72.35Z"/>
  <text fill="#000000" font-weight="bold" font-size="180" font-family="arial" x="300" y="480">EOS EVM</text>
</svg>
